<svg xmlns="http://www.w3.org/2000/svg" viewBox="0 0 512 512">
  <g transform="translate(0,512) scale(0.1,-0.1)" fill="#000000" fill-rule="evenodd" stroke="none">
    <path d="M1980 4645 c-604 -81 -1085 -386 -1397 -886 -206 -330 -327 -737
-340 -1144 -20 -643 274 -1331 735 -1717 351 -295 776 -440 1287 -440 546 0
1150 192 1795 572 l155 91 65 -4 c53 -3 84 -13 169 -56 110 -54 149 -61 224
-40 51 14 113 71 144 133 70 138 23 351 -110 492 -71 77 -144 114 -234 122
-81 6 -120 -14 -230 -118 -71 -67 -101 -88 -215 -143 -220 -107 -528 -224
-758 -286 -220 -60 -525 -101 -737 -101 -780 2 -1348 432 -1505 1140 -32 141
-31 452 0 595 44 198 114 364 222 525 72 109 232 273 330 339 222 151 479 240
779 271 409 41 923 -57 1440 -275 264 -111 360 -166 472 -271 85 -80 120 -98
190 -98 118 -1 270 115 338 257 85 178 56 375 -67 462 -37 25 -54 30 -115 33
-69 3 -76 1 -167 -44 -79 -39 -107 -47 -167 -52 -80 -5 -51 -17 -293 123 -463
268 -922 440 -1355 506 -172 27 -507 34 -655 14z m506 -199 c32 -32 34 -38 34
-105 0 -115 -29 -160 -103 -163 -77 -3 -110 49 -101 158 8 89 18 112 56 129
52 22 77 18 114 -19z m-718 -60 c31 -28 54 -74 86 -170 24 -75 25 -81 10 -112
-32 -67 -117 -93 -179 -55 -25 15 -38 38 -70 122 -21 57 -38 116 -38 131 0 39
29 77 76 98 48 22 81 18 115 -14z m1401 -42 c38 -31 39 -56 9 -142 -27 -78
-57 -112 -97 -112 -45 0 -91 44 -91 86 0 41 33 133 61 168 28 35 77 35 118 0z
m-2042 -366 c75 -63 155 -150 169 -184 12 -29 12 -39 0 -67 -20 -48 -70 -87
-112 -87 -51 0 -80 19 -165 108 -104 109 -113 169 -36 234 46 39 95 38 144 -4z
m-347 -672 c121 -45 144 -68 138 -143 -5 -57 -23 -85 -72 -110 -27 -14 -36
-13 -144 23 -142 48 -182 79 -182 143 0 84 51 136 125 126 22 -2 83 -20 135
-39z m92 -1256 c33 -26 60 -93 52 -128 -14 -57 -47 -79 -204 -133 -100 -35
-127 -32 -170 17 -24 28 -30 44 -30 79 0 68 39 106 143 140 45 15 89 31 97 36
27 15 86 10 112 -11z m356 -584 c64 -33 91 -114 56 -166 -27 -41 -147 -160
-176 -176 -60 -31 -137 -2 -164 62 -24 57 -10 90 75 178 112 116 148 133 209
102z m581 -398 c18 -13 41 -36 51 -53 19 -30 18 -31 -16 -137 -19 -59 -46
-121 -59 -137 -65 -76 -205 -23 -205 77 0 20 14 74 31 121 51 140 119 184 198
129z m1311 -48 c21 -11 80 -147 80 -185 0 -37 -16 -62 -51 -81 -39 -20 -82
-11 -104 23 -24 36 -55 131 -55 168 0 58 78 103 130 75z m-634 -101 c21 -17
34 -76 34 -151 0 -83 -23 -116 -86 -125 -77 -10 -109 29 -119 143 -4 55 -2 76
12 103 29 55 110 71 159 30z"/>
  </g>
</svg>
