<svg xmlns="http://www.w3.org/2000/svg" viewBox="0 0 259 251">
  <g transform="translate(0,251) scale(0.1,-0.1)" fill="#000000" fill-rule="evenodd" stroke="none">
    <path d="M1152 2489 c-240 -28 -497 -130 -678 -270 -72 -56 -202 -192 -252
-265 -213 -315 -271 -729 -151 -1088 64 -191 147 -326 293 -472 237 -238 538
-363 911 -380 315 -15 594 43 880 181 175 85 407 225 422 256 16 30 17 432 2
460 -9 18 -24 19 -204 19 l-193 0 -47 -70 c-79 -118 -206 -220 -345 -276 -126
-51 -206 -66 -380 -71 -189 -6 -285 7 -427 59 -288 104 -485 378 -485 677 -1
121 20 210 77 326 104 215 308 359 582 411 123 23 385 15 495 -14 221 -60 379
-165 483 -322 l47 -70 193 0 c180 0 195 1 204 19 15 28 14 430 -2 460 -15 31
-246 170 -422 256 -314 152 -665 213 -1003 174z m266 -245 l-3 -76 -85 -2
c-47 -1 -91 2 -97 7 -14 10 -19 128 -6 140 3 4 49 7 100 7 l94 0 -3 -76z m543
-45 c41 -17 78 -35 83 -39 5 -5 -5 -37 -22 -74 l-31 -66 -83 36 c-45 19 -84
37 -87 39 -2 2 4 23 14 47 9 24 21 53 26 66 5 12 13 22 18 22 5 0 42 -14 82
-31z m-1142 -56 c18 -37 29 -69 23 -71 -5 -1 -39 -21 -75 -42 -36 -22 -70 -40
-74 -40 -13 1 -74 112 -69 126 4 11 142 94 156 94 3 0 21 -30 39 -67z m-52
-1663 c36 -21 70 -41 75 -42 6 -2 -5 -34 -23 -71 -25 -49 -38 -66 -49 -62 -38
15 -142 78 -146 89 -5 14 56 125 69 126 4 0 38 -18 74 -40z m1255 -56 c17 -37
27 -69 22 -74 -20 -18 -165 -73 -173 -64 -12 13 -54 124 -49 129 3 3 157 72
166 74 2 1 17 -29 34 -65z m-604 -159 l3 -76 -98 3 -98 3 -3 63 c-2 35 1 69 7
76 6 7 40 11 98 9 l88 -2 3 -76z"/>
  </g>
</svg>
