<svg xmlns="http://www.w3.org/2000/svg" viewBox="0 0 157 143">
  <g transform="translate(0,143) scale(0.1,-0.1)" fill="#000000" fill-rule="evenodd" stroke="none">
    <path d="M545 1405 c-38 -8 -107 -33 -154 -55 -108 -52 -228 -169 -283 -275
-151 -292 -108 -637 106 -863 110 -115 219 -170 388 -194 172 -24 385 27 617
148 129 67 150 72 191 49 84 -48 165 21 139 118 -14 53 -43 93 -79 112 -44 23
-64 19 -116 -24 -56 -47 -210 -113 -343 -148 -114 -29 -284 -36 -371 -14 -136
34 -255 126 -312 243 -35 72 -48 127 -48 213 0 327 275 524 643 460 165 -28
356 -102 435 -169 52 -42 75 -45 123 -12 70 48 94 162 44 211 -28 29 -76 33
-115 10 -40 -23 -67 -18 -153 31 -131 73 -246 120 -372 150 -91 22 -257 26
-340 9z m223 -104 c-2 -26 -8 -37 -22 -39 -24 -5 -38 16 -30 48 13 54 57 47
52 -9z m-222 -23 c25 -72 -37 -97 -64 -26 -19 48 -10 70 25 66 20 -2 29 -11
39 -40z m449 21 c10 -15 -15 -69 -32 -69 -20 0 -27 27 -15 56 12 25 36 32 47
13z m-656 -144 c17 -20 31 -39 31 -43 0 -14 -23 -32 -40 -32 -23 0 -70 52 -70
76 0 47 38 46 79 -1z m-134 -199 c37 -16 46 -44 21 -65 -10 -8 -23 -8 -51 2
-43 15 -61 36 -52 61 8 20 37 21 82 2z m23 -418 c23 -23 13 -48 -24 -64 -50
-21 -79 -15 -79 16 0 18 9 29 35 42 42 21 52 22 68 6z m136 -210 c8 -14 4 -24
-24 -53 -40 -41 -73 -44 -78 -6 -3 15 6 33 24 52 31 32 60 35 78 7z m184 -125
c6 -12 5 -31 -3 -53 -10 -29 -17 -35 -41 -35 -35 0 -41 19 -20 69 17 40 49 49
64 19z m442 -32 c13 -32 7 -51 -16 -51 -18 0 -39 43 -31 64 10 25 34 18 47
-13z m-222 -40 c5 -54 -41 -66 -51 -13 -7 36 2 54 27 50 16 -2 22 -11 24 -37z"/>
  </g>
</svg>
